<svg width="24" height="25" viewBox="0 0 24 25" fill="none" xmlns="http://www.w3.org/2000/svg">
<rect y="0.503906" width="24" height="24" rx="8" fill="#FCFCFC"/>
<path d="M18.9719 18.648L16.5445 11.6668C16.374 11.2075 15.9924 10.9235 15.554 10.9235C15.1156 10.9235 14.7422 11.2075 14.5554 11.6835L12.1361 18.648C12.1063 18.7259 12.0919 18.8092 12.0939 18.8929C12.0959 18.9766 12.1142 19.0591 12.1477 19.1354C12.1812 19.2117 12.2293 19.2803 12.289 19.3372C12.3488 19.3941 12.419 19.4381 12.4955 19.4666C12.5721 19.495 12.6534 19.5074 12.7347 19.503C12.816 19.4986 12.8956 19.4775 12.9688 19.4409C13.0421 19.4043 13.1074 19.3529 13.161 19.2899C13.2146 19.2269 13.2553 19.1534 13.2808 19.0739L13.7842 17.6292H17.3157L17.8191 19.0739C17.9084 19.3328 18.1438 19.4914 18.3955 19.4914C18.4604 19.4914 18.5335 19.4831 18.5984 19.458C18.7502 19.4015 18.8739 19.2853 18.9424 19.135C19.0109 18.9846 19.0186 18.8125 18.9638 18.6563L18.9719 18.648ZM14.2307 16.3682L15.5621 12.5352L16.8936 16.3682H14.2307ZM12.1605 9.02793C10.3257 12.0091 8.66955 13.8129 6.65617 15.0154C6.58741 15.0566 6.51144 15.0833 6.43261 15.0943C6.35377 15.1052 6.27362 15.1001 6.19672 15.0791C6.11982 15.0582 6.04769 15.0219 5.98444 14.9723C5.92119 14.9226 5.86806 14.8607 5.82808 14.7899C5.78744 14.7194 5.76086 14.6412 5.74989 14.56C5.73892 14.4788 5.74377 14.3961 5.76417 14.3168C5.78458 14.2375 5.82012 14.1632 5.86872 14.0982C5.91733 14.0332 5.97803 13.9788 6.04728 13.9382C7.75216 12.9194 9.14854 11.458 10.7154 9.03628H5.60889C5.27603 9.03628 5 8.75235 5 8.40997C5 8.06759 5.27603 7.78366 5.60889 7.78366H8.65331V6.13021C8.65331 5.78783 8.92934 5.50391 9.2622 5.50391C9.59506 5.50391 9.87109 5.78783 9.87109 6.13021V7.78366H12.9155C13.2484 7.78366 13.5244 8.06759 13.5244 8.40997C13.5244 8.75235 13.2484 9.03628 12.9155 9.03628H12.1524L12.1605 9.02793ZM12.193 15.0989C12.0874 15.0989 11.9819 15.0739 11.8845 15.0154C11.3568 14.6981 10.8453 14.3474 10.3663 13.9799C10.2371 13.8803 10.1517 13.7319 10.1289 13.5675C10.106 13.403 10.1476 13.236 10.2445 13.1031C10.3414 12.9702 10.4857 12.8824 10.6455 12.8589C10.8054 12.8354 10.9678 12.8782 11.097 12.9778C11.5354 13.3202 12.0144 13.6375 12.5015 13.9298C12.6168 13.9997 12.7066 14.1066 12.7571 14.2341C12.8076 14.3616 12.8159 14.5026 12.7809 14.6354C12.7458 14.7683 12.6693 14.8856 12.5631 14.9694C12.4568 15.0531 12.3268 15.0986 12.193 15.0989Z" fill="url(#paint0_linear_703_209)"/>
<defs>
<linearGradient id="paint0_linear_703_209" x1="11.8965" y1="5.50391" x2="14.9516" y2="24.9286" gradientUnits="userSpaceOnUse">
<stop stop-color="#A9AC25"/>
<stop offset="1" stop-color="#455507"/>
</linearGradient>
</defs>
</svg>
