<svg width="17" height="17" viewBox="0 0 17 17" fill="none" xmlns="http://www.w3.org/2000/svg">
<rect x="1" width="16" height="16" rx="8" fill="#FFFFF9"/>
<g clip-path="url(#clip0_1134_34438)">
<path d="M14.2179 3.24228C14.2179 4.5151 11.9328 8.82718 11.9328 8.82718C11.9328 8.82718 9.65449 4.5151 9.65449 3.24228C9.63165 2.92538 9.67363 2.60712 9.77781 2.30736C9.882 2.00761 10.0462 1.7328 10.26 1.50009C10.4739 1.26739 10.7329 1.08178 11.0208 0.954867C11.3087 0.82795 11.6195 0.762451 11.9335 0.762451C12.2476 0.762451 12.5583 0.82795 12.8463 0.954867C13.1342 1.08178 13.3932 1.26739 13.6071 1.50009C13.8209 1.7328 13.985 2.00761 14.0892 2.30736C14.1934 2.60712 14.2354 2.92538 14.2126 3.24228H14.2179Z" fill="#687535"/>
<path d="M10.2671 0.457275H0.677734V0.712928C0.677734 0.712928 3.80562 -0.758434 8.3395 16.4573L11.2201 10.4141C11.2201 10.4141 5.44821 0.712928 10.2429 0.712928L10.2671 0.457275Z" fill="#687535"/>
</g>
<defs>
<clipPath id="clip0_1134_34438">
<rect width="13.5385" height="16" fill="white" transform="translate(0.679688 0.457275)"/>
</clipPath>
</defs>
</svg>
