<svg width="93" height="93" viewBox="0 0 93 93" fill="none" xmlns="http://www.w3.org/2000/svg">
<g filter="url(#filter0_b_850_32307)">
<path d="M0 46.4392C0 20.7915 20.7915 0 46.4392 0V0C72.0869 0 92.8784 20.7915 92.8784 46.4392V46.4392C92.8784 72.0869 72.0869 92.8784 46.4392 92.8784V92.8784C20.7915 92.8784 0 72.0869 0 46.4392V46.4392Z" fill="white" fill-opacity="0.2"/>
<g filter="url(#filter1_b_850_32307)">
<path d="M13.6602 46.4398C13.6602 28.3356 28.3365 13.6592 46.4408 13.6592V13.6592C64.545 13.6592 79.2214 28.3356 79.2214 46.4398V46.4398C79.2214 64.544 64.545 79.2204 46.4408 79.2204V79.2204C28.3365 79.2204 13.6602 64.544 13.6602 46.4398V46.4398Z" fill="#121200" fill-opacity="0.2"/>
<path d="M46.4408 78.5375C28.7137 78.5375 14.3431 64.1669 14.3431 46.4398C14.3431 28.7127 28.7137 14.3421 46.4408 14.3421C64.1678 14.3421 78.5385 28.7127 78.5385 46.4398C78.5385 64.1669 64.1678 78.5375 46.4408 78.5375Z" stroke="white" stroke-opacity="0.4" stroke-width="1.36587"/>
<path d="M37.6751 65.4212C37.6126 65.4212 37.5293 65.4629 37.4668 65.4629C33.4251 63.4629 30.1335 60.1504 28.1126 56.1087C28.1126 56.0462 28.1543 55.9629 28.1543 55.9004C30.696 56.6504 33.321 57.2129 35.9251 57.6504C36.3835 60.2754 36.9251 62.8796 37.6751 65.4212Z" fill="white"/>
<path d="M65.3626 56.1296C63.3001 60.2754 59.8626 63.6296 55.6751 65.6504C56.4668 63.0046 57.1335 60.3379 57.571 57.6504C60.196 57.2129 62.7793 56.6504 65.321 55.9004C65.3001 55.9837 65.3626 56.0671 65.3626 56.1296Z" fill="white"/>
<path d="M65.5293 37.9212C62.9043 37.1296 60.2585 36.4837 57.571 36.0254C57.1335 33.3379 56.4876 30.6712 55.6751 28.0671C59.9876 30.1296 63.4668 33.6087 65.5293 37.9212Z" fill="white"/>
<path d="M37.6751 28.2962C36.9251 30.8379 36.3835 33.4212 35.946 36.0462C33.2585 36.4629 30.5918 37.1296 27.946 37.9212C29.9668 33.7337 33.321 30.2962 37.4668 28.2337C37.5293 28.2337 37.6126 28.2962 37.6751 28.2962Z" fill="white"/>
<path d="M54.0085 35.5879C49.1751 35.0462 44.3001 35.0462 39.4668 35.5879C39.9876 32.7337 40.6543 29.8796 41.5918 27.1296C41.6335 26.9629 41.6126 26.8379 41.6335 26.6712C43.2793 26.2754 44.9668 26.0254 46.7376 26.0254C48.4876 26.0254 50.196 26.2754 51.821 26.6712C51.8418 26.8379 51.8418 26.9629 51.8835 27.1296C52.821 29.9004 53.4876 32.7337 54.0085 35.5879Z" fill="white"/>
<path d="M35.4668 54.1296C32.5918 53.6087 29.7585 52.9421 27.0085 52.0046C26.8418 51.9629 26.7168 51.9837 26.5501 51.9629C26.1543 50.3171 25.9043 48.6296 25.9043 46.8587C25.9043 45.1087 26.1543 43.4004 26.5501 41.7754C26.7168 41.7546 26.8418 41.7546 27.0085 41.7129C29.7793 40.7962 32.5918 40.1087 35.4668 39.5879C34.946 44.4212 34.946 49.2962 35.4668 54.1296Z" fill="white"/>
<path d="M67.571 46.8587C67.571 48.6296 67.321 50.3171 66.9251 51.9629C66.7585 51.9837 66.6335 51.9629 66.4668 52.0046C63.696 52.9212 60.8626 53.6087 58.0085 54.1296C58.5501 49.2962 58.5501 44.4212 58.0085 39.5879C60.8626 40.1087 63.7168 40.7754 66.4668 41.7129C66.6335 41.7546 66.7585 41.7754 66.9251 41.7754C67.321 43.4212 67.571 45.1087 67.571 46.8587Z" fill="white"/>
<path d="M54.0085 58.1296C53.4876 61.0046 52.821 63.8379 51.8835 66.5879C51.8418 66.7546 51.8418 66.8796 51.821 67.0462C50.196 67.4421 48.4876 67.6921 46.7376 67.6921C44.9668 67.6921 43.2793 67.4421 41.6335 67.0462C41.6126 66.8796 41.6335 66.7546 41.5918 66.5879C40.6751 63.8171 39.9876 61.0046 39.4668 58.1296C41.8835 58.4004 44.3001 58.5879 46.7376 58.5879C49.1751 58.5879 51.6126 58.4004 54.0085 58.1296Z" fill="white"/>
<path d="M54.5779 54.699C49.3673 55.3564 44.108 55.3564 38.8974 54.699C38.2399 49.4884 38.2399 44.2291 38.8974 39.0185C44.108 38.361 49.3673 38.361 54.5779 39.0185C55.2353 44.2291 55.2353 49.4884 54.5779 54.699Z" fill="white"/>
</g>
</g>
<defs>
<filter id="filter0_b_850_32307" x="-5.46346" y="-5.46346" width="103.806" height="103.806" filterUnits="userSpaceOnUse" color-interpolation-filters="sRGB">
<feFlood flood-opacity="0" result="BackgroundImageFix"/>
<feGaussianBlur in="BackgroundImageFix" stdDeviation="2.73173"/>
<feComposite in2="SourceAlpha" operator="in" result="effect1_backgroundBlur_850_32307"/>
<feBlend mode="normal" in="SourceGraphic" in2="effect1_backgroundBlur_850_32307" result="shape"/>
</filter>
<filter id="filter1_b_850_32307" x="8.19669" y="8.19571" width="76.4875" height="76.4885" filterUnits="userSpaceOnUse" color-interpolation-filters="sRGB">
<feFlood flood-opacity="0" result="BackgroundImageFix"/>
<feGaussianBlur in="BackgroundImageFix" stdDeviation="2.73173"/>
<feComposite in2="SourceAlpha" operator="in" result="effect1_backgroundBlur_850_32307"/>
<feBlend mode="normal" in="SourceGraphic" in2="effect1_backgroundBlur_850_32307" result="shape"/>
</filter>
</defs>
</svg>
